<svg xmlns="http://www.w3.org/2000/svg" width="840" height="881" viewBox="0 0 840 881" font-family="ui-monospace, SFMono-Regular, Menlo, Consolas, monospace"><defs><linearGradient id="ibg" x1="0" y1="0" x2="0" y2="1"><stop offset="0" stop-color="#111722"/><stop offset="1" stop-color="#0d1117"/></linearGradient></defs><style>.f{opacity:0;animation:fadeIn 0.5s ease-out forwards;}@keyframes fadeIn{0%{opacity:0;transform:translateY(8px)}100%{opacity:1;transform:translateY(0)}}</style><rect width="840" height="881" rx="12" fill="url(#ibg)"/><rect x="0.5" y="0.5" width="839" height="880" rx="12" fill="none" stroke="#30363d" stroke-width="1"/><line x1="0" y1="30" x2="840" y2="30" stroke="#30363d"/><circle cx="28" cy="15.0" r="5" fill="#ff5f56"/><circle cx="44" cy="15.0" r="5" fill="#ffbd2e"/><circle cx="60" cy="15.0" r="5" fill="#27c93f"/><text x="420.0" y="19.0" fill="#7d8590" font-size="12" text-anchor="middle">averagebond@github: ~$ neofetch</text><g class="f" style="animation-delay: 0.1s"><text x="28" y="72" font-size="24" font-weight="700" fill="#38bdf8">adit<tspan fill="#7d8590">@</tspan><tspan fill="#34d399">workstation</tspan></text><line x1="28" y1="84" x2="812" y2="84" stroke="#30363d" stroke-dasharray="4 4"/></g><g class="f" style="animation-delay: 0.25s"><text x="28" y="116" font-size="16" font-weight="700" fill="#38bdf8">Role: </text><text x="188" y="116" font-size="16" fill="#38bdf8">Software Engineer &amp; Android Developer</text></g><g class="f" style="animation-delay: 0.37s"><text x="28" y="162" font-size="16" font-weight="700" fill="#38bdf8">Core: </text><text x="188" y="162" font-size="16" fill="#34d399">Python &#183; SQL</text></g><g class="f" style="animation-delay: 0.49s"><text x="28" y="208" font-size="16" font-weight="700" fill="#38bdf8">Backend: </text><text x="188" y="208" font-size="16" fill="#c084fc">Firebase &#183; Android Studio</text></g><g class="f" style="animation-delay: 0.61s"><text x="28" y="254" font-size="16" font-weight="700" fill="#38bdf8">Featured App: </text><text x="188" y="254" font-size="16" fill="#f3f4f6">JalSanchayTracker (Conservation Tracker)</text></g><g class="f" style="animation-delay: 0.73s"><text x="28" y="300" font-size="16" font-weight="700" fill="#38bdf8">Next Focus: </text><text x="188" y="300" font-size="16" fill="#fbbf24">Data Analytics &amp; Performance Engineering</text></g><g class="f" style="animation-delay: 0.85s"><text x="28" y="346" font-size="16" font-weight="700" fill="#38bdf8">Upcoming: </text><text x="188" y="346" font-size="16" fill="#f87171">Formula 1 &amp; Motorsport Data Projects</text></g><g class="f" style="animation-delay: 0.97s"><text x="28" y="392" font-size="16" font-weight="700" fill="#38bdf8">Mission: </text><text x="188" y="392" font-size="16" fill="#38bdf8">To Be The Best</text></g><g class="f" style="animation-delay: 1.09s"><text x="28" y="438" font-size="16" font-weight="700" fill="#38bdf8">Status: </text><text x="188" y="438" font-size="16" fill="#34d399">Actively Learning &amp; Upskilling Daily</text></g><line class="f" style="animation-delay: 1.3s" x1="28" y1="499" x2="812" y2="499" stroke="#30363d" stroke-opacity="0.6"/><g class="f" style="animation-delay: 1.45s"><rect x="28" y="527" width="40" height="24" rx="4" fill="#2d333b"/><rect x="76" y="527" width="40" height="24" rx="4" fill="#f85149"/><rect x="124" y="527" width="40" height="24" rx="4" fill="#2ea043"/><rect x="172" y="527" width="40" height="24" rx="4" fill="#d29922"/><rect x="220" y="527" width="40" height="24" rx="4" fill="#388bfd"/><rect x="268" y="527" width="40" height="24" rx="4" fill="#bc8cff"/><rect x="316" y="527" width="40" height="24" rx="4" fill="#39c5cf"/><rect x="364" y="527" width="40" height="24" rx="4" fill="#b1bac4"/><rect x="28" y="559" width="40" height="24" rx="4" fill="#484f58"/><rect x="76" y="559" width="40" height="24" rx="4" fill="#ff7b72"/><rect x="124" y="559" width="40" height="24" rx="4" fill="#3fb950"/><rect x="172" y="559" width="40" height="24" rx="4" fill="#e3b341"/><rect x="220" y="559" width="40" height="24" rx="4" fill="#58a6ff"/><rect x="268" y="559" width="40" height="24" rx="4" fill="#d2a8ff"/><rect x="316" y="559" width="40" height="24" rx="4" fill="#56d4dd"/><rect x="364" y="559" width="40" height="24" rx="4" fill="#f0f6fc"/></g><line x1="0" y1="827" x2="840" y2="827" stroke="#30363d"/><text class="f" style="animation-delay: 1.6s" x="28" y="845" fill="#7d8590" font-size="13">uptime: <tspan fill="#f3f4f6">road to f1 engineering</tspan> &#183; shell: <tspan fill="#34d399">zsh 5.9</tspan></text><rect x="376" y="834" width="8" height="13" fill="#34d399"><animate attributeName="opacity" values="1;1;0;0" keyTimes="0;0.5;0.51;1" dur="1s" repeatCount="indefinite"/></rect></svg>